<?xml version="1.0" encoding="utf-8"?>
<!-- Generator: Adobe Illustrator 24.1.0, SVG Export Plug-In . SVG Version: 6.00 Build 0)  -->
<svg version="1.1" id="Слой_1" xmlns="http://www.w3.org/2000/svg" xmlns:xlink="http://www.w3.org/1999/xlink" x="0px" y="0px"
	 viewBox="0 0 512 512" style="enable-background:new 0 0 512 512;" xml:space="preserve">
<style type="text/css">
	.st0{fill:#421914;}
</style>
<g id="Outline">
	<g>
		<path class="st0" d="M488,16H216c-4.4,0-8,3.6-8,8s3.6,8,8,8h264v169c0,4.4,3.6,8,8,8s8-3.6,8-8V24C496,19.6,492.4,16,488,16z"/>
		<path class="st0" d="M488,224c-4.4,0-8,3.6-8,8v72H192V56c0-4.4-3.6-8-8-8s-8,3.6-8,8v80h-16V32h24c4.4,0,8-3.6,8-8s-3.6-8-8-8H24
			c-4.4,0-8,3.6-8,8s3.6,8,8,8h120v40H56c-4.4,0-8,3.6-8,8s3.6,8,8,8h88v52.4c-15.2,8.7-20.5,28.1-11.8,43.3
			c2.8,4.9,6.9,9,11.8,11.8V208h-40c-4.4,0-8,3.6-8,8s3.6,8,8,8h40v16H48c-4.4,0-8,3.6-8,8s3.6,8,8,8h96v48H24c-4.4,0-8,3.6-8,8
			s3.6,8,8,8h80v32H40c-4.4,0-8,3.6-8,8s3.6,8,8,8h24v40c0,4.4,3.6,8,8,8h56v32H64c-4.4,0-8,3.6-8,8s3.6,8,8,8h80.8c4.4,0,8-3.6,8-8
			s-3.6-8-8-8H144v-32h36.3c-16.4,18.2-16.4,45.8,0,64H96c-4.4,0-8,3.6-8,8s3.6,8,8,8h120c20.3,0,38.4-12.8,45.2-32h67.6
			c4.4,0,8-3.6,8-8s-3.6-8-8-8H264c0-11.8-4.4-23.2-12.3-32h112.6c-16.4,18.2-16.4,45.8,0,64H344c-4.4,0-8,3.6-8,8s3.6,8,8,8h56
			c20.3,0,38.4-12.8,45.2-32H472c4.4,0,8-3.6,8-8v-48c0-4.4-3.6-8-8-8h-56v-32h32c4.4,0,8-3.6,8-8v-16c0-4.4-3.6-8-8-8s-8,3.6-8,8v8
			H120v-32h368c4.4,0,8-3.6,8-8v-80C496,227.6,492.4,224,488,224z M248,448c0,17.7-14.3,32-32,32s-32-14.3-32-32s14.3-32,32-32
			S248,430.3,248,448z M400,480c-17.7,0-32-14.3-32-32s14.3-32,32-32s32,14.3,32,32S417.7,480,400,480z M464,448h-16
			c0-11.8-4.4-23.2-12.3-32H464V448z M400,368v32H80v-32H400z M160,152h16v32h-16c-8.8,0-16-7.2-16-16S151.2,152,160,152z M160,200
			h16v104h-16V200z"/>
		<circle class="st0" cx="400" cy="448" r="8"/>
		<circle class="st0" cx="216" cy="448" r="8"/>
		<path class="st0" d="M312,480h-32c-4.4,0-8,3.6-8,8s3.6,8,8,8h32c4.4,0,8-3.6,8-8S316.4,480,312,480z"/>
		<path class="st0" d="M64,480H24c-4.4,0-8,3.6-8,8s3.6,8,8,8h40c4.4,0,8-3.6,8-8S68.4,480,64,480z"/>
		<path class="st0" d="M374.6,89c-1.7-4.1-6.4-6-10.4-4.3L260,127.9l0,0l0,0l-43.4,18c-4.1,1.7-6,6.4-4.3,10.4
			c25.2,61.5,74,110.3,135.4,135.5c4.1,1.7,8.8-0.2,10.5-4.3c0,0,0,0,0,0l92.8-224c1.7-4.1-0.2-8.8-4.3-10.5c-2-0.8-4.2-0.8-6.1,0
			l-46.7,19.4c-4,1.8-5.8,6.5-4,10.6c1.7,3.9,6.2,5.7,10.1,4.2l28.9-12l-15.4,37.2c-21.8-3-41.9,12.2-44.9,34
			c-2,14.3,3.9,28.5,15.4,37.3l-19.3,46.5c-5.9-2.8-11.6-5.8-17.2-9.2c11.6-6.3,16-20.8,9.7-32.4c-6.3-11.6-20.8-16-32.4-9.7
			c-6,3.2-10.3,8.9-11.9,15.5c-16.2-15.8-29.3-34.4-38.9-54.9l30.3-12.5c0,0.4-0.1,0.7-0.1,1.1c-0.1,13.3,10.6,24.1,23.9,24.1
			c13.3,0.1,24.1-10.6,24.1-23.9c0-6.8-2.8-13.3-7.9-17.9l26.2-10.8C374.3,97.8,376.3,93.1,374.6,89z M336,192c4.4,0,8,3.6,8,8
			s-3.6,8-8,8s-8-3.6-8-8S331.6,192,336,192z M328,136c-4.4,0-8-3.6-8-8s3.6-8,8-8s8,3.6,8,8S332.4,136,328,136z M384,152
			c0-12.8,10.1-23.3,22.8-23.9l-16.6,40C386.2,163.7,384,158,384,152z M358.3,245.1l-11.9,28.8c-51.7-23.3-93-64.7-116.3-116.3
			l28.8-11.9C279.3,189.5,314.6,224.7,358.3,245.1z"/>
		<path class="st0" d="M112,128c4.4,0,8-3.6,8-8s-3.6-8-8-8H80c-4.4,0-8,3.6-8,8s3.6,8,8,8H112z"/>
		<path class="st0" d="M416,256c0,13.3,10.7,24,24,24s24-10.7,24-24c0-13.3-10.7-24-24-24S416,242.7,416,256z M448,256
			c0,4.4-3.6,8-8,8s-8-3.6-8-8s3.6-8,8-8S448,251.6,448,256z"/>
		<path class="st0" d="M448,136c-4.4,0-8,3.6-8,8v48c0,4.4,3.6,8,8,8s8-3.6,8-8v-48C456,139.6,452.4,136,448,136z"/>
		<path class="st0" d="M256,48h-40c-4.4,0-8,3.6-8,8s3.6,8,8,8h40c4.4,0,8-3.6,8-8S260.4,48,256,48z"/>
		<path class="st0" d="M216,96h24c4.4,0,8-3.6,8-8s-3.6-8-8-8h-24c-4.4,0-8,3.6-8,8S211.6,96,216,96z"/>
		<path class="st0" d="M216,280h32c4.4,0,8-3.6,8-8s-3.6-8-8-8h-32c-4.4,0-8,3.6-8,8S211.6,280,216,280z"/>
	</g>
</g>
</svg>
